<?xml version="1.0" encoding="utf-8"?>
<!-- Generator: Adobe Illustrator 27.5.0, SVG Export Plug-In . SVG Version: 6.00 Build 0)  -->
<svg version="1.1" id="SvgjsSvg1041" xmlns:svgjs="http://svgjs.com/svgjs"
	 xmlns="http://www.w3.org/2000/svg" xmlns:xlink="http://www.w3.org/1999/xlink" x="0px" y="0px" viewBox="0 0 288 288"
	 style="enable-background:new 0 0 288 288;" xml:space="preserve">
<style type="text/css">
	.st0{fill:#FFFFFF;}
</style>
<g id="SvgjsG1043">
	<path class="st0" d="M125.3,188.2c-0.6-11.7-10.6-20.8-22.3-20.2c-10.9,0.5-19.7,9.3-20.2,20.2l0,0c-0.3,11.7,9,21.5,20.7,21.8
		s21.5-9,21.8-20.7l0,0C125.3,189,125.3,188.6,125.3,188.2z M100,197.3c-2.8-1.3-4.6-4.1-4.7-7.2c-0.1-0.6-0.1-1.3,0-1.9
		c0.6-4.8,5-8.1,9.8-7.5c3.9,0.5,7,3.6,7.5,7.5c0,0.4,0,0.8,0,1.2c-0.1,4.9-4.1,8.8-9,8.7C102.3,198.2,101.1,197.9,100,197.3z
		 M260.4,188.2c-0.6-11.7-10.6-20.8-22.3-20.2c-10.9,0.5-19.7,9.3-20.2,20.2l0,0c-0.3,11.7,9,21.5,20.7,21.8
		c11.7,0.3,21.5-9,21.8-20.7l0,0C260.5,189,260.5,188.6,260.4,188.2z M235.1,197.3c-2.8-1.3-4.6-4.1-4.7-7.2c-0.1-0.6-0.1-1.3,0-1.9
		c0.6-4.8,5-8.1,9.8-7.5c3.9,0.5,7,3.6,7.5,7.5c0,0.4,0,0.8,0,1.2c-0.1,4.9-4.1,8.8-9,8.7C237.5,198.2,236.3,197.9,235.1,197.3
		L235.1,197.3z M110,118.4c-1.3,4.3-2.9,8.6-4.8,13h4.8C109.8,127.1,109.8,122.8,110,118.4z"/>
	<path class="st0" d="M282.1,140.1l-13.8-18.4c-2.8-3.8-7.1-6-11.8-6h-17.9c-1.5,0-2.7-1.2-2.7-2.7c0,0,0,0,0-0.1l0.5-18.2
		c1-8.2-4.8-15.6-13-16.7c-0.4-0.1-0.9-0.1-1.3-0.1H69.7c-7.6,0.2-13.9,6.2-14.3,13.9l-0.9,9.9H32.7c-2.7,0-4.9,2-5.1,4.7
		c0,2.8,2.3,5.1,5.1,5.1h20.5l-1.2,13.7H20.1c-2.7,0-4.9,2-5.1,4.7c0,2.8,2.3,5.1,5.1,5.1h31.2l-0.8,14.6H7.6c-2.7,0-4.9,2-5.1,4.7
		c0,2.8,2.3,5.1,5.1,5.1h41.7l-1.9,22.5c-0.3,3.1,1.8,5.8,4.9,6.2c0.1,0,0.1,0,0.2,0h20.9c1.4,0,2.6-1.1,2.8-2.5
		c2.1-15.1,16-25.6,31-23.6c12.2,1.7,21.9,11.3,23.6,23.6c0.2,1.4,1.4,2.4,2.8,2.5h75.7c1.4,0,2.6-1.1,2.8-2.5
		c2.1-15.1,16-25.6,31-23.6c12.2,1.7,21.9,11.3,23.6,23.6c0.2,1.4,1.4,2.4,2.8,2.5h12.1c2.4-0.1,4.2-2.1,4.1-4.4c0,0,0,0,0,0v-33.4
		C285.5,146.6,284.3,143,282.1,140.1z M85.5,142.2h-6.9l5.7-30.7h14.1l-1.2,6.6H90l-1,5.6h6.3l-1.2,6.4h-6.2L85.5,142.2z
		 M110.5,142.2V137h-7.4l-2.1,5.1h-7.3l13.9-30.7h7.8l2.5,30.7H110.5z M139.4,118.8c-1.4-1-3-1.5-4.7-1.7c-0.8,0-1.5,0.2-2.1,0.6
		c-0.6,0.4-1,1-1.1,1.7c-0.2,1.3,0.6,2.7,2.7,4.3c1.4,1.1,2.6,2.5,3.5,4c1.1,1.8,1.5,3.9,1,6c-0.5,2.6-1.9,5-4,6.6
		c-3.7,3-8.9,3.4-13.1,1.2l1.3-7.2c1.5,1.1,3.3,1.8,5.1,1.9c0.8,0,1.6-0.2,2.2-0.7c0.6-0.5,1-1.2,1.1-1.9c0.1-0.6,0-1.2-0.3-1.7
		c-0.5-0.7-1.1-1.4-1.7-1.9c-1.7-1.4-3.2-3.2-4.3-5.1c-0.8-1.6-1-3.4-0.7-5.1c0.4-2.5,1.8-4.8,3.7-6.5c1.9-1.7,4.4-2.6,7-2.5
		c1.9,0,3.9,0.4,5.6,1.3L139.4,118.8z M160.7,118.6h-4.8l-4.4,23.7h-7.1l4.4-23.7h-4.8l1.3-7H162L160.7,118.6z M191.4,129.5
		c-0.5,5-2.1,9.8-4.4,14.2c-2.4,4.4-5.7,8.3-9.6,11.5l0,0c-1.8,1.5-4.2,2.2-6.5,1.9h-0.6c-4.8-0.9-7.9-5.6-6.9-10.3
		c0.4-2,1.4-3.7,2.9-5l0.6-0.4c4.7-3.2,8-8.2,9-13.8c0.9-5.9-0.4-11.9-3.6-16.9c-2.7-4.5-6.5-8.2-11.1-10.7
		c-8.6-4.6-18.7-5.8-28.2-3.2c3.6-2.9,7.7-5.1,12.1-6.4c4.5-1.3,9.2-1.8,13.9-1.3c4.7,0.5,9.3,1.9,13.4,4.2
		c4.2,2.3,7.9,5.4,10.9,9.2c3,3.7,5.3,7.9,6.8,12.4c1.4,4.7,1.9,9.7,1.5,14.6L191.4,129.5z M271,145.8h-30.8c-1.2,0-2.2-1-2.2-2.2
		l0,0v-15c0-1.6,1.3-2.9,2.9-2.9h15.7c0.9,0,1.8,0.4,2.4,1.2l13,17.6c0.2,0.5-0.1,1-0.6,1.2c-0.1,0-0.1,0-0.2,0L271,145.8z"/>
</g>
</svg>
