<?xml version="1.0" encoding="utf-8"?>
<!-- Generator: Adobe Illustrator 27.5.0, SVG Export Plug-In . SVG Version: 6.00 Build 0)  -->
<svg version="1.1" id="SvgjsSvg1036" xmlns:svgjs="http://svgjs.com/svgjs"
	 xmlns="http://www.w3.org/2000/svg" xmlns:xlink="http://www.w3.org/1999/xlink" x="0px" y="0px" viewBox="0 0 288 288"
	 style="enable-background:new 0 0 288 288;" xml:space="preserve">
<style type="text/css">
	.st0{fill:#FFFFFF;}
</style>
<g id="SvgjsG1038">
	<path class="st0" d="M144,6C67.9,6,6,67.9,6,144s61.9,138,138,138s138-61.9,138-138S220.1,6,144,6z M187.4,186.2
		c-4.2,6.1-9.6,10.6-16.8,14c-5.3,2.3-10.8,3.8-16.5,4.3v18.5c0,2.8-2.3,5.1-5.1,5.1h-15.3c-2.8,0-5.1-2.3-5.1-5.1v-20.2
		c-2.9-0.7-5.7-1.7-8.6-3c-7.6-3.1-13.8-8.2-18.1-15c-4.3-6.3-6.7-13.8-7-22.5c-0.1-2.8,2-5.1,4.8-5.3l13.7-0.9
		c2.8-0.2,5.1,1.8,5.4,4.5c0.5,4.6,1.8,8.4,3.7,11c2.1,3.2,4.9,5.3,9.1,7c8.8,3.9,20,3.9,27.8,0.9c3.4-1.5,5.9-3.2,7.5-5.2
		c1.4-2,2.1-4.1,2.1-6.5c0-2.3-0.6-4.1-2.1-5.9c-0.8-1-2.7-2.9-7.9-5c-2.5-0.8-9-2.7-19-5.1c-11.6-2.9-18.3-5.1-22.5-7.4
		c-6.2-3.3-10.9-7.4-13.8-12.1c-3-4.8-4.5-10.4-4.5-16.4c0-6.6,1.8-12.9,5.5-18.7c3.8-5.6,9.3-10.1,16.1-12.9c2.3-1,4.9-1.9,7.8-2.6
		V64.6c0-2.8,2.3-5.1,5.1-5.1H149c2.8,0,5.1,2.3,5.1,5.1v16.2c4.6,0.8,8.9,1.9,12.7,3.5c7.5,3.4,12.9,7.9,16.8,13.8
		c3.9,5.6,6.1,12.4,6.5,20c0.1,2.8-2,5.2-4.8,5.4l-14.1,0.9c-2.7,0.2-5-1.7-5.4-4.4c-0.8-5.8-2.7-9.8-5.9-12.3
		c-3.6-3.1-8.9-4.5-16.2-4.5c-7.2,0-13,1.4-16.3,3.9c-2.7,2.1-3.9,4.6-3.9,7.8c0,2.5,0.8,4.5,2.3,5.9c0.8,0.7,5.3,3.6,19.8,6.6
		c12,2.8,20.8,5.4,25.6,7.5c7.7,3.5,13.2,7.9,16.4,13.3c3.6,5.4,5.4,11.4,5.4,18.3C193.2,173.6,191.2,180.2,187.4,186.2z"/>
</g>
</svg>
